HIERARCHY
ROOT Hips
{
    OFFSET 0.000000 0.000000 0.000000
    CHANNELS 6 Xposition Yposition Zposition Zrotation Xrotation Yrotation
    JOINT Spine
    {
        OFFSET -0.000000 7.246840 0.000000
        CHANNELS 3 Zrotation Xrotation Yrotation
        JOINT Spine1
        {
            OFFSET -0.000000 20.289354 0.000000
            CHANNELS 3 Zrotation Xrotation Yrotation
            JOINT Neck
            {
                OFFSET -0.000000 20.206032 1.836912
                CHANNELS 3 Zrotation Xrotation Yrotation
                JOINT Head
                {
                    OFFSET -0.000000 12.372654 -1.767522
                    CHANNELS 3 Zrotation Xrotation Yrotation
                    End Site
                    {
                        OFFSET -0.000000 22.094025 0.000000
                    }
                }
            }
            JOINT LeftShoulder
            {
                OFFSET 3.465871 17.201674 -0.568930
                CHANNELS 3 Zrotation Xrotation Yrotation
                JOINT LeftArm
                {
                    OFFSET 14.070313 0.000000 0.000000
                    CHANNELS 3 Zrotation Xrotation Yrotation
                    JOINT LeftForeArm
                    {
                        OFFSET 26.549477 0.000000 0.000000
                        CHANNELS 3 Zrotation Xrotation Yrotation
                        JOINT LeftHand
                        {
                            OFFSET 18.880413 0.000000 0.000000
                            CHANNELS 3 Zrotation Xrotation Yrotation
                            End Site
                            {
                                OFFSET 13.256415 0.000000 0.000000
                            }
                        }
                    }
                }
            }
            JOINT RightShoulder
            {
                OFFSET -3.526370 17.201674 -0.568930
                CHANNELS 3 Zrotation Xrotation Yrotation
                JOINT RightArm
                {
                    OFFSET -14.070313 0.000000 0.000000
                    CHANNELS 3 Zrotation Xrotation Yrotation
                    JOINT RightForeArm
                    {
                        OFFSET -26.549477 0.000000 0.000000
                        CHANNELS 3 Zrotation Xrotation Yrotation
                        JOINT RightHand
                        {
                            OFFSET -18.880413 0.000000 0.000000
                            CHANNELS 3 Zrotation Xrotation Yrotation
                            End Site
                            {
                                OFFSET -13.256415 0.000000 0.000000
                            }
                        }
                    }
                }
            }
        }
    }
    JOINT LeftUpLeg
    {
        OFFSET 8.837609 0.000000 0.000000
        CHANNELS 3 Zrotation Xrotation Yrotation
        JOINT LeftLeg
        {
            OFFSET -0.000000 -41.345005 0.000000
            CHANNELS 3 Zrotation Xrotation Yrotation
            JOINT LeftFoot
            {
                OFFSET -0.000000 -35.500874 0.000000
                CHANNELS 3 Zrotation Xrotation Yrotation
                JOINT LeftToeBase
                {
                    OFFSET -0.000000 -5.744446 13.256415
                    CHANNELS 3 Zrotation Xrotation Yrotation
                    End Site
                    {
                        OFFSET -0.000000 0.000000 3.535044
                    }
                }
            }
        }
    }
    JOINT RightUpLeg
    {
        OFFSET -8.837609 0.000000 0.000000
        CHANNELS 3 Zrotation Xrotation Yrotation
        JOINT RightLeg
        {
            OFFSET -0.000000 -41.345005 0.000000
            CHANNELS 3 Zrotation Xrotation Yrotation
            JOINT RightFoot
            {
                OFFSET -0.000000 -35.500874 0.000000
                CHANNELS 3 Zrotation Xrotation Yrotation
                JOINT RightToeBase
                {
                    OFFSET -0.000000 -5.744446 13.256415
                    CHANNELS 3 Zrotation Xrotation Yrotation
                    End Site
                    {
                        OFFSET -0.000000 0.000000 3.535044
                    }
                }
            }
        }
    }
}
MOTION
Frames:    14
Frame Time:    0.010000
4.386995    82.299728    -9.981148    3.380531    4.828737    -1.987442    -3.496210    -15.803581    -0.138077    -0.989803    2.557359    0.369453    3.687560    30.361166    -0.457357    -0.015677    -11.953547    0.034231    19.145618    1.227874    7.690959    -31.609764    10.047093    -10.688382    7.331161    -10.408820    -17.932341    -28.863422    -7.929955    -5.252903    -14.061259    0.974988    12.738237    23.952227    12.314998    6.674421    -4.410847    -10.604859    5.252650    10.640366    -8.888292    16.416224    -4.720640    7.231009    3.917421    -1.605816    -10.948845    -5.825626    1.422897    0.814849    -1.279424    -0.431928    -0.014632    0.604719    -8.213012    5.250183    0.827142    8.159575    -10.955341    2.857036    -1.837455    -0.884218    -7.345931    0.207335    -0.658921    -0.374487    
4.374805    82.300507    -9.985734    3.385525    4.825942    -2.000138    -3.516491    -15.806183    -0.137055    -0.974973    2.557680    0.373153    3.713566    30.377674    -0.460098    -0.064771    -12.005461    0.023699    19.154129    1.253327    7.700589    -31.626438    10.018159    -10.712832    7.344557    -10.403362    -17.900490    -28.772963    -7.912594    -5.316548    -14.055014    0.956066    12.740979    23.947912    12.291814    6.660387    -4.406894    -10.578125    5.258873    10.581873    -8.869157    16.422796    -4.717058    7.227304    3.923326    -1.619185    -10.933269    -5.773826    1.434610    0.804446    -1.323359    -0.398761    -0.020573    0.558304    -8.209064    5.247850    0.827193    8.159330    -10.954769    2.887214    -1.823488    -0.877190    -7.360390    0.210664    -0.658861    -0.380498    
4.361581    82.300667    -9.989052    3.387393    4.818521    -2.012537    -3.536559    -15.811213    -0.140419    -0.951725    2.571070    0.372348    3.704839    30.367054    -0.457237    -0.080490    -12.014604    0.019735    19.148125    1.279133    7.706043    -31.629744    9.997065    -10.722427    7.349137    -10.417044    -17.868488    -28.668644    -7.916339    -5.381694    -14.050088    0.947446    12.749126    23.925980    12.275714    6.653164    -4.400335    -10.578510    5.264796    10.532135    -8.878610    16.403078    -4.712502    7.229177    3.927948    -1.601338    -10.934412    -5.798467    1.996164    0.693591    -1.304768    -0.249577    0.249251    0.348871    -8.201596    5.252995    0.830323    8.156344    -10.966931    2.844497    -1.823145    -0.869924    -7.312351    0.206063    -0.663780    -0.372208    
4.350129    82.301544    -9.993155    3.389958    4.814106    -2.021559    -3.546660    -15.813363    -0.140637    -0.943289    2.578214    0.373286    3.709431    30.350702    -0.446096    -0.112549    -12.018290    0.024031    19.141260    1.256808    7.689372    -31.624325    10.000872    -10.677363    7.318928    -10.431310    -17.871746    -28.490826    -7.931797    -5.430304    -14.051508    0.937090    12.756989    23.920479    12.281083    6.627540    -4.406616    -10.597808    5.287721    10.543471    -8.895977    16.394890    -4.705456    7.228204    3.916566    -1.602866    -10.933367    -5.819451    1.413462    0.807427    -1.250533    -0.423845    -0.012854    0.593397    -8.198111    5.256114    0.837554    8.163836    -10.973894    2.858737    -1.844313    -0.867402    -7.317800    0.205112    -0.649146    -0.370431    
4.339576    82.302437    -9.997074    3.392817    4.807968    -2.038352    -3.553829    -15.812215    -0.134719    -0.930668    2.578457    0.379931    3.693784    30.357649    -0.449477    -0.115675    -12.043703    0.018426    19.125662    1.243215    7.691926    -31.602646    10.010320    -10.680576    7.309437    -10.405442    -17.829214    -28.415636    -7.897536    -5.494992    -14.068578    0.931200    12.758196    23.931654    12.234372    6.612409    -4.406446    -10.600658    5.289996    10.568339    -8.893910    16.408611    -4.708202    7.228258    3.896351    -1.584567    -10.923354    -5.770531    1.407369    0.802524    -1.253498    -0.414195    -0.022205    0.579919    -8.195646    5.257487    0.833938    8.168054    -10.975273    2.865916    -1.850938    -0.856128    -7.301413    0.202986    -0.656786    -0.366623    
4.326706    82.303070    -10.001938    3.395018    4.808552    -2.050878    -3.551391    -15.816071    -0.131111    -0.954880    2.579146    0.384038    3.708770    30.354166    -0.448147    -0.111601    -12.058270    0.022915    19.140020    1.290448    7.729768    -31.571791    10.006771    -10.752181    7.296358    -10.405951    -17.797470    -28.370001    -7.896736    -5.525744    -14.056142    0.929379    12.763666    23.944160    12.179861    6.589138    -4.410686    -10.619213    5.309487    10.616243    -8.905546    16.400043    -4.698669    7.218809    3.872364    -1.594635    -10.902100    -5.734530    1.418561    0.793600    -1.270593    -0.434911    -0.030032    0.608952    -8.188954    5.252290    0.831157    8.165852    -10.978479    2.864421    -1.835255    -0.858360    -7.297705    0.195914    -0.664733    -0.353881    
4.315122    82.304070    -10.005673    3.396729    4.802999    -2.064026    -3.609375    -15.798407    -0.146384    -0.805332    2.567924    0.372792    3.490166    30.314728    -0.396457    0.008058    -12.021618    0.073740    18.946899    1.278694    7.780028    -31.431946    10.055581    -10.772909    7.290404    -10.426785    -17.801176    -28.421200    -7.913655    -5.534443    -14.172012    0.903157    12.757416    23.980494    12.161664    6.597515    -4.431348    -10.629912    5.279414    10.710221    -8.898636    16.446320    -4.694571    7.215553    3.870267    -1.599128    -10.890470    -5.684626    2.073720    0.667751    -1.317068    -0.251440    0.270062    0.351431    -8.183145    5.255989    0.833480    8.165583    -10.988264    2.847768    -1.857981    -0.846810    -7.264122    0.188529    -0.654575    -0.340503    
4.303942    82.305817    -10.009296    3.403942    4.798977    -2.078305    -3.598191    -15.786318    -0.141557    -0.871694    2.536764    0.376711    3.560609    30.350601    -0.403633    -0.009072    -12.053033    0.073637    19.018244    1.282984    7.787955    -31.451330    10.088870    -10.762208    7.338108    -10.446545    -17.810780    -28.553448    -7.924366    -5.512340    -14.125268    0.944277    12.757612    23.972906    12.081380    6.615377    -4.411453    -10.637010    5.255974    10.739097    -8.899993    16.482340    -4.697275    7.210513    3.855930    -1.587088    -10.875269    -5.676425    1.436565    0.778604    -1.285834    -0.446076    -0.025590    0.624568    -8.183612    5.256620    0.821333    8.173720    -10.987526    2.887022    -1.848127    -0.843314    -7.270021    0.188769    -0.644235    -0.340898    
4.293492    82.307098    -10.012375    3.415314    4.797682    -2.089897    -3.604757    -15.784418    -0.135361    -0.897561    2.522563    0.384402    3.587396    30.353277    -0.404639    -0.007774    -12.054949    0.075825    19.049299    1.288941    7.793427    -31.454960    10.090220    -10.764066    7.364013    -10.485105    -17.840839    -28.679609    -7.985601    -5.375185    -14.115313    0.962765    12.747810    23.975712    12.051427    6.616344    -4.386746    -10.623901    5.248579    10.713885    -8.891335    16.487865    -4.705177    7.202011    3.847808    -1.571016    -10.861059    -5.699076    1.436329    0.777585    -1.239503    -0.449482    -0.021395    0.629321    -8.190802    5.259436    0.824971    8.176185    -11.003858    2.863920    -1.871447    -0.832379    -7.244918    0.181209    -0.648300    -0.327259    
4.284876    82.308105    -10.014365    3.419424    4.790803    -2.104099    -3.612015    -15.784967    -0.126849    -0.848091    2.529492    0.392742    3.458118    30.331619    -0.390650    0.070362    -12.035137    0.090713    18.952517    1.279821    7.807511    -31.381266    10.082390    -10.768150    7.370770    -10.510030    -17.871214    -28.772606    -8.009863    -5.348454    -14.195894    0.949630    12.720151    24.016033    12.037034    6.638995    -4.377593    -10.583912    5.215466    10.662447    -8.860539    16.484535    -4.703943    7.202733    3.834123    -1.575391    -10.844864    -5.639373    1.453285    0.771623    -1.261601    -0.432335    -0.029653    0.605345    -8.195518    5.267182    0.839994    8.187558    -11.015461    2.856674    -1.862309    -0.825058    -7.219171    0.191847    -0.665401    -0.346537    
4.274985    82.309532    -10.016478    3.430184    4.791149    -2.120946    -3.618604    -15.791315    -0.118411    -0.859861    2.521367    0.402677    3.462662    30.338955    -0.392909    0.069389    -12.035094    0.088881    18.965107    1.282500    7.808040    -31.398432    10.042759    -10.758098    7.391777    -10.499153    -17.894657    -28.813978    -7.997749    -5.326169    -14.181766    0.958713    12.716879    24.005571    12.038061    6.637413    -4.376666    -10.570061    5.184789    10.633762    -8.852609    16.477699    -4.711890    7.196216    3.832089    -1.561833    -10.834274    -5.645432    1.442744    0.762815    -1.248476    -0.458574    -0.025786    0.642068    -8.201354    5.266091    0.833743    8.188280    -11.021465    2.885879    -1.855358    -0.833521    -7.235397    0.182096    -0.641891    -0.328838    
4.264175    82.309875    -10.018073    3.434021    4.784881    -2.138876    -3.672698    -15.758540    -0.106783    -0.738136    2.460763    0.417558    3.374875    30.326756    -0.393198    0.069324    -11.985170    0.075867    18.889418    1.260102    7.772120    -31.391682    10.029427    -10.713384    7.381297    -10.485685    -17.925985    -28.768070    -7.991991    -5.302568    -14.308649    0.960818    12.680062    24.070133    12.068575    6.634922    -4.395747    -10.583585    5.159978    10.645405    -8.864263    16.481485    -4.711778    7.194348    3.855048    -1.571394    -10.813391    -5.597075    1.447991    0.743050    -1.306541    -0.457174    -0.031586    0.640130    -8.199657    5.271940    0.833634    8.193260    -11.031637    2.885316    -1.865556    -0.815790    -7.210157    0.186418    -0.653869    -0.336688    
4.255202    82.309685    -10.019660    3.442412    4.780188    -2.161197    -3.715364    -15.729696    -0.098088    -0.654487    2.410780    0.429265    3.320659    30.322062    -0.387557    0.061371    -11.963389    0.073237    18.835949    1.287353    7.806978    -31.415813    9.876493    -10.788216    7.367063    -10.404639    -17.876867    -28.672033    -7.918172    -5.311833    -14.380931    0.952850    12.659466    24.101574    12.108432    6.623458    -4.413232    -10.618426    5.135189    10.654674    -8.899415    16.467573    -4.717082    7.198605    3.847731    -1.569690    -10.812032    -5.542107    1.455626    0.736160    -1.330060    -0.462499    -0.035283    0.647600    -8.203495    5.273494    0.844167    8.195772    -11.037152    2.872399    -1.857257    -0.820293    -7.194139    0.164843    -0.653783    -0.297721    
4.245846    82.309769    -10.022278    3.449970    4.784332    -2.182052    -3.619636    -15.798082    -0.081668    -0.864643    2.496228    0.439528    3.457227    30.334017    -0.380893    0.005646    -11.996017    0.085382    18.954382    1.263165    7.813604    -31.438587    9.831956    -10.766948    7.356281    -10.380569    -17.841955    -28.586761    -7.892627    -5.349213    -14.215793    0.932234    12.728085    24.055277    12.098957    6.559718    -4.427106    -10.664268    5.124207    10.670951    -8.944472    16.451492    -4.719736    7.190727    3.836056    -1.558751    -10.810094    -5.546033    1.445143    0.739524    -1.294444    -0.455334    -0.053778    0.637639    -8.203975    5.265203    0.838788    8.192705    -11.037970    2.907520    -1.855365    -0.824853    -7.207679    0.164718    -0.623773    -0.297397    
